Coordinates
version=1
nRows=11
nColumns=42
inDegrees=yes

Units are S.I. units (second, meters, Newtons, ...)
If the header above contains a line with 'inDegrees', this indicates whether rotational values are in degrees (yes) or radians (no).

endheader
time	pelvis_tilt	pelvis_list	pelvis_rotation	pelvis_tx	pelvis_ty	pelvis_tz	hip_flexion_r	hip_adduction_r	hip_rotation_r	knee_angle_r	knee_adduction_r	knee_angle_r_beta	ankle_angle_r	subtalar_angle_r	mtp_angle_r	hip_flexion_l	hip_adduction_l	hip_rotation_l	knee_angle_l	knee_adduction_l	knee_angle_l_beta	ankle_angle_l	subtalar_angle_l	mtp_angle_l	lumbar_extension	lumbar_bending	lumbar_rotation	arm_flex_r	arm_add_r	arm_rot_r	elbow_flex_r	pro_sup_r	wrist_flex_r	wrist_dev_r	arm_flex_l	arm_add_l	arm_rot_l	elbow_flex_l	pro_sup_l	wrist_flex_l	wrist_dev_l
      1.65000000	     14.80810213	      3.19829774	      6.59987422	     -0.40660498	      0.88088127	     -0.03291416	     11.44284400	     -2.86492712	    -16.59956048	     33.53444926	     -1.03046384	      0.58528655	     10.78921002	     -8.12178138	     -7.55917103	    -21.38427959	     -4.01089383	    -19.64417127	     44.06894958	     -8.95719644	      0.76914827	      9.06653121	     28.58802345	     -7.55917103	    -35.70551965	     -0.47473931	     -5.26302057	     -4.58419736	     -5.95148444	    -42.74934181	     23.88705993	     90.00000001	      0.00000000	      0.00000000	     10.76444488	     -7.10976226	    -29.23113569	     38.07827473	     90.00000001	      0.00000000	      0.00000000
      1.66000000	     14.87181335	      2.96460282	      6.33633383	     -0.39722679	      0.88189387	     -0.03096876	     10.86934700	     -2.22326571	    -17.04122217	     33.62339045	     -1.64152863	      0.58683887	     11.55388414	     -7.16444289	     -7.55723236	    -20.61004190	     -4.09193407	    -18.43393910	     46.15124307	     -8.75729152	      0.80549115	      7.71331379	     24.60462442	     -7.55723236	    -35.75853458	     -0.36716611	     -4.90392381	     -4.21725414	     -6.17123954	    -41.92007801	     24.20926391	     90.00000001	      0.00000000	      0.00000000	     10.35493738	     -6.86116617	    -29.85439481	     37.81838304	     90.00000001	      0.00000000	      0.00000000
      1.67000000	     15.06173490	      2.89394056	      6.16851781	     -0.38795954	      0.88314607	     -0.02952828	     10.05321382	     -1.96756289	    -17.77552758	     33.69070395	     -1.99383704	      0.58801371	     12.57793766	     -6.01986604	     -7.55452625	    -19.85557534	     -4.00178962	    -17.55213486	     48.19574015	     -8.85605509	      0.84117435	      6.72991050	     21.35410966	     -7.55452625	    -35.97628766	     -0.30971486	     -4.71612895	     -3.84865917	     -6.40989139	    -40.97457929	     24.61671081	     90.00000001	      0.00000000	      0.00000000	      9.93088960	     -6.66373112	    -30.22074371	     37.58984236	     90.00000001	      0.00000000	      0.00000000
      1.68000000	     15.22134039	      2.77126800	      5.99365968	     -0.37885962	      0.88430775	     -0.02798984	      9.23282283	     -1.61554769	    -18.44865336	     33.62050946	     -2.36712278	      0.58678859	     13.52638523	     -5.05062513	     -7.55243746	    -18.95479598	     -3.99896194	    -16.90632110	     50.27435047	     -8.99692561	      0.87745294	      6.16863239	     18.43294625	     -7.55243746	    -36.16352769	     -0.22805532	     -4.47495308	     -3.42363465	     -6.62226475	    -40.18250453	     25.05653582	     90.00000001	      0.00000000	      0.00000000	      9.51586924	     -6.48528866	    -30.47454419	     37.37764376	     90.00000001	      0.00000000	      0.00000000
      1.69000000	     15.55176181	      2.90583919	      5.64877483	     -0.36994135	      0.88587614	     -0.02625419	      8.21004591	     -1.54968250	    -18.67566338	     33.58907171	     -2.52669526	      0.58623989	     13.96959765	     -4.75487923	     -7.55171585	    -18.26595823	     -3.66105733	    -16.78058035	     52.03045635	     -9.43845689	      0.90810277	      6.38329269	     17.20415635	     -7.55171585	    -36.59611381	     -0.49322729	     -4.19757239	     -2.87639370	     -6.73669473	    -39.86029688	     25.43312991	     90.00000001	      0.00000000	      0.00000000	      9.15247841	     -6.38592558	    -30.52018293	     37.22475924	     90.00000001	      0.00000000	      0.00000000
      1.70000000	     15.56848224	      2.59990444	      5.69261791	     -0.36130528	      0.88686486	     -0.02493586	      7.50149163	     -1.00016219	    -19.78957268	     33.27998012	     -3.08034314	      0.58084523	     15.09720931	     -2.98551307	     -7.54912617	    -17.01334238	     -3.87106826	    -15.03078214	     54.23254907	     -8.64153917	      0.94653654	      5.78494187	     11.52108019	     -7.54912617	    -36.64249095	     -0.14240919	     -4.04414207	     -2.50710752	     -7.02185862	    -38.18178149	     26.05193156	     90.00000001	      0.00000000	      0.00000000	      8.82862228	     -6.19158899	    -30.96805824	     36.88274843	     90.00000001	      0.00000000	      0.00000000
      1.71000000	     15.82608737	      2.65960335	      5.59666036	     -0.35275748	      0.88837083	     -0.02364354	      6.47315834	     -0.93748094	    -20.32710214	     33.06856274	     -3.18882862	      0.57715530	     15.92871380	     -2.01113018	     -7.54666688	    -16.06099737	     -3.59583818	    -14.10886764	     55.96675228	     -8.50645025	      0.97680410	      5.92359141	      8.00819335	     -7.54666688	    -37.00498767	     -0.20766141	     -3.95900770	     -2.05078441	     -7.23112730	    -36.82091858	     26.64774873	     90.00000001	      0.00000000	      0.00000000	      8.53178402	     -6.06607030	    -31.19732042	     36.65514084	     90.00000001	      0.00000000	      0.00000000
      1.72000000	     16.06086809	      2.62200126	      5.52217271	     -0.34429886	      0.88980646	     -0.02230345	      5.42748537	     -0.69051025	    -20.50083016	     32.73255375	     -3.21753350	      0.57129084	     16.53805955	     -1.48995027	     -7.54455187	    -15.00271131	     -3.49945915	    -13.26925879	     57.64352296	     -8.25380239	      1.00606927	      6.34867976	      4.81509339	     -7.54455187	    -37.32687418	     -0.18519641	     -3.79438844	     -1.58560523	     -7.43020408	    -35.63964561	     27.23229529	     90.00000001	      0.00000000	      0.00000000	      8.23186355	     -5.94605501	    -31.32619806	     36.41306746	     90.00000001	      0.00000000	      0.00000000
      1.73000000	     16.39986426	      2.79571511	      5.23285129	     -0.33607299	      0.89147412	     -0.02075731	      4.35769862	     -0.72041572	    -20.45498379	     32.58396535	     -3.18340911	      0.56869748	     16.78843135	     -1.37193993	     -7.54396907	    -14.06487717	     -3.11696738	    -13.22904650	     58.96672842	     -8.51560137	      1.02916356	      7.14609698	      3.84390099	     -7.54396907	    -37.81349558	     -0.46861862	     -3.55756291	     -0.86211517	     -7.52359490	    -35.30015504	     27.68580987	     90.00000001	      0.00000000	      0.00000000	      7.99193600	     -5.89216746	    -31.29904909	     36.28455398	     90.00000001	      0.00000000	      0.00000000
      1.74000000	     16.57779179	      2.54041664	      5.35894888	     -0.32818714	      0.89291074	     -0.01953355	      3.22766626	     -0.16191568	    -20.23241150	     31.84086304	     -2.92790114	      0.55572790	     17.35267482	     -1.26021946	     -7.54205471	    -12.80062268	     -3.29137212	    -11.37066781	     60.50618299	     -7.37301388	      1.05603211	      7.41750815	     -0.99236821	     -7.54205471	    -38.10916146	     -0.16474355	     -3.42032685	     -0.42866569	     -7.83294180	    -33.30072264	     28.48371909	     90.00000001	      0.00000000	      0.00000000	      7.82622677	     -5.76405367	    -31.45994732	     35.94865317	     90.00000001	      0.00000000	      0.00000000
      1.75000000	     16.81122704	      2.68552799	      5.29721113	     -0.32039799	      0.89448095	     -0.01846111	      2.16920444	     -0.19648034	    -19.91720835	     31.51287916	     -2.59442027	      0.55000350	     17.51907193	     -1.61288467	     -7.53931949	    -11.62244677	     -2.87584010	    -10.35555666	     61.62159572	     -6.95294401	      1.07549974	      7.60272756	     -4.05327090	     -7.53931949	    -38.50692464	     -0.30809226	     -3.38104840	      0.10693511	     -8.08292525	    -31.55689069	     29.19290029	     90.00000001	      0.00000000	      0.00000000	      7.63687952	     -5.68815257	    -31.55491862	     35.77634087	     90.00000001	      0.00000000	      0.00000000
